<?xml version="1.0" standalone="no"?>
<!DOCTYPE svg PUBLIC "-//W3C//DTD SVG 20010904//EN"
 "http://www.w3.org/TR/2001/REC-SVG-20010904/DTD/svg10.dtd">
<svg version="1.0" xmlns="http://www.w3.org/2000/svg"
 width="1284.000000pt" height="1284.000000pt" viewBox="0 0 1284.000000 1284.000000"
 preserveAspectRatio="xMidYMid meet">
<metadata>
Created by potrace 1.14, written by Peter Selinger 2001-2017
</metadata>
<g transform="translate(0.000000,1284.000000) scale(0.100000,-0.100000)"
fill="#000000" stroke="none">
<path d="M3226 12824 c-8 -7 -11 -174 -10 -535 l1 -525 -786 1 c-432 0 -793
-1 -802 -3 -14 -3 -16 -58 -15 -535 l0 -532 31 -30 c17 -16 46 -43 64 -60 l32
-30 732 -1 c403 -1 735 -2 738 -3 3 -1 5 -1870 5 -4153 l-1 -4153 -738 0 -737
0 -63 -62 -62 -62 -1 -535 0 -534 745 -1 c410 0 771 0 802 -1 l55 0 0 -530
c-1 -291 1 -531 4 -532 3 0 243 -2 533 -3 423 -1 530 2 539 12 6 7 8 13 5 13
-4 0 0 19 9 41 8 23 17 54 21 68 4 14 9 230 10 479 l3 452 28 1 c29 0 757 0
902 -1 l85 0 0 -533 0 -533 530 0 c291 0 532 3 535 7 3 4 5 244 5 533 l0 526
60 0 c689 1 1770 9 1800 13 22 3 72 8 110 12 39 3 108 13 155 21 47 9 96 18
110 21 14 2 75 16 135 30 61 15 113 28 118 29 4 1 9 3 12 4 3 1 8 3 13 4 21 5
180 58 197 66 11 5 56 23 100 40 138 53 463 220 473 242 2 5 8 8 13 8 9 0 146
90 190 124 14 12 36 28 49 36 12 8 28 21 36 28 7 7 35 29 61 49 26 20 61 48
76 62 69 63 295 291 322 325 31 39 71 86 104 122 11 12 17 25 14 28 -3 3 2 8
11 12 9 3 16 10 16 15 0 6 5 15 11 22 31 37 102 139 126 182 15 28 32 56 39
62 7 7 18 26 26 43 7 16 17 30 21 30 5 0 6 4 2 9 -3 5 -1 12 4 15 5 4 22 33
38 66 15 33 31 60 35 60 5 0 8 7 8 16 0 9 6 28 14 42 31 57 75 162 110 262 21
58 42 113 47 122 4 9 11 31 14 49 3 17 10 40 16 50 5 11 8 19 5 19 -2 0 3 21
11 48 16 51 26 97 27 125 0 9 3 17 6 17 3 0 6 8 7 18 0 9 4 28 7 42 6 26 12
59 21 120 2 19 7 46 9 60 36 191 36 669 1 880 -2 14 -7 43 -10 65 -8 54 -42
217 -60 285 -8 32 -9 37 -23 85 -6 22 -12 45 -13 50 -6 40 -125 351 -141 370
-4 5 -8 17 -8 27 0 10 -4 18 -10 18 -5 0 -10 6 -10 14 0 12 -59 135 -70 146
-3 3 -13 23 -23 45 -55 120 -303 472 -399 568 -14 14 -16 22 -8 37 6 11 15 20
20 20 6 0 10 6 10 14 0 8 8 21 18 28 17 12 106 126 177 227 17 23 36 48 43 56
6 7 12 18 12 24 0 5 6 16 13 23 36 37 170 289 262 493 38 83 116 312 131 383
2 13 11 42 18 65 8 23 17 58 20 77 3 19 9 46 12 60 3 14 7 34 9 45 2 11 8 44
14 74 6 29 8 57 5 62 -3 5 -2 9 3 9 4 0 8 12 9 28 0 15 4 47 7 72 29 202 25
602 -9 800 -2 14 -6 45 -9 70 -9 68 -53 264 -81 363 -14 49 -27 94 -29 100 -1
7 -5 21 -9 32 -5 11 -17 45 -28 75 -11 30 -24 63 -29 72 -5 10 -9 25 -9 33 0
8 -4 23 -10 33 -5 9 -28 58 -50 107 -67 149 -185 365 -209 385 -3 3 -15 22
-26 43 -11 21 -55 86 -99 145 -204 276 -442 513 -711 707 -78 57 -106 75 -115
75 -5 0 -10 5 -10 10 0 6 -7 10 -15 10 -8 0 -15 4 -15 8 0 5 -12 15 -27 23
-16 7 -56 30 -90 51 -81 49 -308 159 -408 198 -117 47 -296 107 -340 116 -5 1
-46 11 -90 22 -44 12 -91 23 -105 25 -14 3 -54 10 -90 17 -95 18 -101 19 -150
25 -120 15 -291 27 -350 25 -19 -1 -42 -1 -50 0 -8 0 -377 1 -820 2 l-805 2 0
533 0 533 -25 1 c-224 6 -1040 2 -1041 -6 -1 -5 -2 -246 -3 -535 l-1 -525
-505 0 -505 0 -5 460 c-5 452 -5 461 -29 530 -13 39 -25 72 -27 74 -2 3 -239
5 -526 5 -359 1 -525 -2 -532 -10z m2119 -2253 c7 -1 10 -1387 9 -4143 -1
-2279 -2 -4148 -3 -4153 -1 -7 -172 -10 -503 -10 l-503 0 -3 4145 c-1 2280 0
4150 2 4155 2 7 176 9 497 9 272 -1 499 -2 504 -3z m2800 -5 c100 -10 183 -22
230 -33 17 -3 39 -7 50 -9 11 -1 20 -3 20 -4 0 -1 9 -3 20 -5 29 -5 97 -26
120 -36 11 -5 31 -12 45 -14 24 -5 138 -48 172 -66 10 -5 24 -9 32 -9 8 0 16
-3 18 -7 2 -5 47 -30 101 -57 53 -27 97 -53 97 -58 0 -4 6 -8 14 -8 7 0 43
-21 79 -47 36 -27 76 -55 88 -63 12 -8 39 -29 58 -46 20 -17 51 -44 70 -60 19
-16 39 -34 45 -40 100 -103 153 -163 204 -229 34 -44 67 -87 75 -96 7 -8 17
-22 20 -30 4 -8 15 -26 25 -41 56 -85 149 -266 144 -280 -1 -5 3 -8 8 -8 6 0
10 -6 10 -13 0 -8 12 -42 26 -78 15 -35 30 -77 35 -94 4 -16 16 -60 27 -96 11
-37 22 -84 26 -105 6 -45 13 -78 20 -102 19 -65 28 -504 12 -592 -4 -19 -11
-63 -16 -97 -8 -50 -33 -154 -54 -228 -1 -5 -8 -30 -15 -55 -31 -108 -179
-430 -202 -438 -5 -2 -9 -8 -9 -13 0 -9 -77 -126 -98 -148 -7 -8 -21 -26 -30
-40 -23 -35 -72 -90 -167 -187 l-80 -82 -1467 0 c-808 0 -1469 3 -1469 7 -3
16 -5 3588 -2 3601 4 13 104 15 831 14 455 -1 854 -4 887 -8z m-1275 -4686
c73 1 449 1 465 1 11 -1 127 0 258 2 130 1 237 -2 237 -7 0 -5 6 -4 13 1 7 5
143 8 312 6 165 -2 307 -3 315 -3 631 5 879 4 895 -4 32 -14 173 -163 245
-256 19 -25 37 -47 40 -50 10 -9 90 -131 90 -136 0 -3 8 -18 19 -32 49 -71
180 -358 195 -432 3 -14 14 -55 25 -91 19 -68 23 -85 41 -199 6 -36 15 -85 19
-109 9 -47 8 -429 -2 -471 -3 -14 -8 -49 -11 -79 -4 -29 -8 -56 -10 -60 -2 -3
-7 -22 -10 -41 -3 -19 -10 -50 -15 -67 -5 -18 -7 -33 -4 -33 3 0 1 -6 -5 -12
-6 -7 -11 -16 -11 -21 -5 -58 -109 -331 -152 -397 -5 -8 -15 -26 -21 -40 -18
-35 -122 -202 -141 -225 -9 -11 -37 -47 -64 -80 -74 -93 -74 -92 -149 -168
-67 -67 -202 -183 -254 -217 -12 -8 -38 -27 -58 -42 -19 -16 -40 -28 -47 -28
-7 0 -18 -7 -25 -15 -7 -9 -36 -27 -64 -41 -28 -14 -74 -38 -103 -53 -29 -16
-55 -26 -58 -23 -3 3 -5 0 -5 -6 0 -7 -3 -11 -7 -10 -5 0 -17 -2 -28 -7 -108
-44 -230 -86 -290 -101 -18 -4 -65 -14 -92 -19 -16 -3 -37 -9 -48 -12 -19 -6
-77 -14 -122 -17 -13 0 -23 -3 -23 -6 0 -9 -69 -10 -937 -13 -574 -1 -853 1
-854 8 -6 43 -3 3601 2 3605 4 3 101 4 216 3 114 -2 215 -3 223 -3z"/>
</g>
</svg>
